<svg xmlns="http://www.w3.org/2000/svg" width="640" height="640" viewBox="0 0 640 640"><path fill="#e7e5dd" d="M0 0h640v640H0V0"/><path fill="#205c42" d="M0 0h640v279.675l-640 .003z"/><path fill="#e7e5dd" d="m97.186 178.467-.464.376c-1.533-2.764-.692-10.55-1.498-13.364-4.972-17.367-12.359-16.963-15.883.933a62 62 0 0 0-1.138 10.93c-.135 8.43 1.22 18.46-2.119 26.466-1.245 2.987-4.517 4.915-5.983 7.645-5.85 10.86-15.226 3.213-21.504-2.352-.806-.714-.426-4.024-.155-5.063 3.315-12.731 5.33-25.64 7.735-38.56.576-3.096 1.408-8.126 2.675-10.952.636 2.162-2.155 10.384-1.905 12.763l.342-.166c3.784-11.975 5.942-23.674 7.874-36.04.254-1.625 1.818-6.616 1.524-7.912l-.315-.112-.887 1.297c-2.287-4.214 12.049-29.669 16.14-30.717 25.167-6.443 20.761 48.457 33.063 56.42 3.6.55 5.289-5.803 5.898-8.59 2.05-9.38 7.037-17.08 10.718-25.75-.708.2-.944.526-1.55 1.024-.394-3 8.228-17.679 10.335-20.307 4.265-5.318 8.561-8.84 15.596-9.16 9.11 4.218 15.89 14.653 16.238 24.475.123 3.499 1.277 12.353.797 15.526l-.92-1.514c-.487 1.265 1.464 14.889 1.68 17.652.617 7.857.117 15.244-.293 23.096-.16 5.472 1.037 13.562 1.625 19.113.33 3.124 3.368 15.621 2.398 17.525l-.853-.582c-.193 1.898.02 3.732-1.478 5.102-1.258 1.15-4.237 2.083-5.371 2.946-3.803 2.893-5.46 6.66-11.027 6.436-1.225.065-3.611-1.613-4.045-2.69-.618-1.53-3.868-5.386-4.251-6.668-3.523-11.738-.906-21.745-.437-33.801.275-7.065 4.243-26.753-4.556-30.344-2.764-1.128-7.875 7.412-9.359 9.687-5.002 7.674-6.687 17.202-8.147 26.117-1.095 7.929-1.313 14.495-4.965 22.208-1.92 4.055-4.204 6.214-6.952 9.65-2.877 3.595-3.464 5.813-8.854 5.93-2.148.047-4.4-.46-5.963-2.087-3.302-3.44-3.722-10.83-3.636-15.365.083-4.347.46-9.132.23-13.41-.201-1.978.365-6.665-.36-7.811"/><path fill="#38614b" d="M97.186 178.467c.015-.315.015-1.78.47-1.883.429.53.05 8.28-.054 9.214l-.055.48c-.202-1.978.364-6.665-.36-7.811"/><path fill="#205c42" d="M90.35 98.135c.438.144.891.27 1.305.478 1.506.759 7.73 14.876 8.29 17.016.053.205.097.412.15.617.042.162.09.321.133.483.105.411.219.831.316 1.245.465 1.963.965 3.858 1.013 5.882-3.344-6.489-5.094-14.46-8.635-20.992-.558-1.03-2.353-3.916-2.572-4.729"/><path fill="#205c42" d="M58.318 184.924c.121 1.099-.62 3.601-.882 4.76-1.484 6.58-1.534 13.013-.99 19.638.006.079-.288.122-.29.122-2.274-6.14-1.948-19.27 2.162-24.52"/><path fill="#205c42" d="M160.492 97.118c5.745 1.065 8.029 9.884 8.25 14.88-1.278-.969-2.309-6.228-3.65-8.626-1.846-3.302-2.16-3.444-4.6-6.254"/><path fill="#38614b" d="M105.928 203.067c.285.353.16 5.832.575 7.249.44 1.5 1.22 3.336 1.181 4.8-3.463-2.03-2.429-8.773-1.756-12.05"/><path fill="#627d6a" d="M154.934 162.922c1.333.995.85 11.495.847 13.771-.616-1.455-1.442-11.702-.847-13.771"/><path fill="#8c9d8f" d="M168.138 194.917c1.052.815.919 2.634 1.102 3.925-.94-.203-1.053-3.105-1.102-3.925"/><path fill="#e7e5dd" d="M569.438 137.094c2.593-.156 4.684-.674 6.862-.787.156 1.616.478.474 1.538 1.504 1.084 1.925.087 3.192-.71 5.174-.612 1.34-3.056 5.86-4.353 6.124l-.019-.232c-.465-.086-.922-.173-1.39-.246-4.682 4.462-10.144 6.85-16.41 8.387l1.269.702c6.36-1.66 7.484-.491 13.9-.27 5.112.177 10.897-1.32 15.697-2.977q-1.837 10.918-3.797 21.816c-4.481-.153-11.228-.975-14.725-4.032 3.344.71 7.05 2.224 9.922 2.685-6.335-3.62-23.316-7.96-30.631-8.754l-.62.088c-1.259.173-1.368-.056-2.184 1.008a495 495 0 0 1 22.516 7.401c4.54 1.58 10.628 3.942 15.153 4.956-.522 2.658-1.753 10.655-2.418 12.575-1.163.659-3.92-.082-5.272-.45-11.17-3.038-23.266-9.222-35.038-6.973l-1.072.2c6.297 2.289 7.61 1.445 13.95 2.43 2.744.426 8.375 2.302 11.307 3.166q-.9.233-1.791.494-4.05-.914-8.066-1.952-.465.323-.944.63c7.447 2.995 19.17 5.16 27.2 6.215-1.353 4.564-2.215 7.39-5.53 10.904-6.057 6.417-14.163 10.002-23.004 9.865-2.134-.033-4.45-.172-6.603-.151-14.969 1.488-36.097.986-43.647-14.692-2.334-4.845-2.912-8.122-3.819-13.32 7.988 4.607 18.528 7.768 27.522 10.344l.625-.656c-4.94-1.553-9.394-3.922-14.06-6.137a293 293 0 0 0-14.39-6.378c-1.1-6.363-2.475-12.037-3.956-18.333 8.703 5.654 17.619 9.826 27.678 12.38 2.85.725 5.11 1.735 8.131 1.633l.125-.339c-1.947-1.434-5.153-2.557-7.365-3.742-10.213-5.467-18.132-8.582-29.197-12.005-1.128-3.943-2.356-7.922-3.534-11.856 4.203 1.221 7.359 3 11.862 3.896 2.356.47 7.756.3 9.203.688 3.566.957 3.172 1.596 7.81 1.924 1.459-.138 2.55.203 3.73-.538 4.235-.215 6.932-.245 11.16-1.479 1.106-.322 4.169-1.449 5.022-1.611 1.35.801 1.728.436 3.369.492 5.803-.107 14.944-7.38 18.128-11.88 4.387-6.203 1.575-6.404 10.162-6.833z"/><path fill="#38614b" d="M520.894 159.463c4.234-.215 6.931-.245 11.16-1.479 1.105-.322 4.168-1.449 5.021-1.611 1.35.801 1.728.436 3.369.492-1.372.372-3.16.363-4.19.694-5.713 1.837-13.1 3.664-19.091 2.442 1.459-.138 2.55.203 3.73-.538"/><path fill="#38614b" d="M569.438 137.094c2.593-.156 4.684-.674 6.862-.787.156 1.616.478.474 1.538 1.504-3.294.205-5.388-.024-9.104.341z"/><path fill="#e7e5dd" d="M575.747 143.125c.75.067.74.124 1.381-.14-.612 1.34-3.056 5.86-4.353 6.124l-.019-.232c.678-1.77 2.5-3.295 2.99-5.752"/><path fill="#38614b" d="M575.747 143.125c-.49 2.457-2.313 3.982-2.99 5.752-.466-.086-.923-.173-1.391-.246.525-.593 4.359-5.493 4.38-5.506"/><path fill="#38614b" d="M543.787 167.284c-.54-.11-3.012-.716-3.196-1.151.562-.746 5.05-.115 6 .055l-.62.088c-1.259.173-1.368-.056-2.184 1.008"/><path fill="#627d6a" d="M549.981 157.943c1.31-.27 3.766-.839 4.975-.925l1.269.702c-2.453.387-3.784.357-6.244.223"/><path fill="#627d6a" d="M524.856 198.27c.619.136 1.994.465 2.481.847l.02.082c-.391.412-2.585-.169-3.126-.273z"/><path fill="#38614b" d="M552.113 189.761c-1.55-1.142-.116-.816.943-.63q-.465.323-.944.63"/><path fill="#38614b" d="M546.503 207.827c2.084.307 4.184 1.053 6.316 1.221 1.231.097 1.375.002 2.069 1.022-2.779.593-6.382-.16-8.385-2.243"/><path fill="#627d6a" d="M517.71 202.807c2.227.383 5.68 1.855 7.527 3.106-2.321-.3-5.628-1.743-7.528-3.106"/><path fill="#e7e5dd" d="M407.144 207.156c-2.197 3.61-10.319 8.624-15.047 9.54-8.444 1.636-12.428-3.197-19.247-6.974-10.738-5.944-10.203-19.839-4.163-28.936 2.87-4.322 12.747-13.401 17.716-14.843 1.184-.31 8.922-.09 9.481.216 18.816 10.254 11.622-7.2 2.263-12.604-2.925-1.69-8.116-.096-11.044.784-7.903 2.376-14.578 9.794-13.49-3.999-.2-9.472-.32-9.523 8.38-13.59 11.46-5.36 22.082-8.25 31.263 2.964 7.716 9.42 5.203 8.871 6.797 20.284 1.925 13.759 6.7 27.713 10.603 41.012 2.316 7.745-8.725 9.57-13.565 12.295-5.541 3.057-6.779 1.59-8.444-3.768-.997-1.357-.272-1.653-1.503-2.381"/><path fill="#38614b" d="M408.31 204.108c.243 1.84.059 3.313.337 5.429-.997-1.357-.272-1.653-1.503-2.381.187-.868.812-2.139 1.165-3.048"/><path fill="#205c42" d="M391.569 178.734c1.175-.197 7.615-.456 7.881 1.066-.3.452-4.45.094-5.053.025l-1.216.607c3.957 1.243 6.432.277 9.453 1.471 1.066.953 5.553 3.755 5.629 5.189.487 9.086-8.663 12.399-14.838 13.988 1.844-1.196 3.71-2.153 5.606-3.264-5.665-.15-13.728.492-16.597-5.63-2.156-4.6 4.566-11.79 8.57-13.241z"/><path fill="#b6c0b3" d="M392.169 179.706c.965-.019 1.265-.027 2.228.12l-1.216.606c-.631-.169-.575-.19-1.012-.726"/><path fill="#38614b" d="M367.869 185.812c.075.2.253 12.607.128 13.527-1.144-2.341-1.422-11.127-.128-13.527"/><path fill="#38614b" d="M410.422 139.885c3.544 1.398 4.875 4.59 5.637 8.06-.775-.641-4.575-6.66-5.637-8.06"/><path fill="#38614b" d="M381.578 140.983c.3.31.147.427-.247.653-1.86 1.065-2.881 3.13-3.784 4.982-.763-.126-.203-1.46-.053-1.944.722-2.305 2.112-2.76 4.084-3.691"/><path fill="#38614b" d="M414.706 202.428c1.181 1.04 1.656 3.661 2.016 5.207-1.869-1.203-2.013-3.137-2.016-5.207"/><path fill="#38614b" d="M417.203 204.75c.628-.107.594.163.606.768-.243.135-.35.273-.597.129-.193-.34-.103-.494-.009-.897"/><path fill="#e7e5dd" d="M184.017 160.63c1.079-3.665 2.224-5.571 3.21-8.573l-.514-.588c2.422-2.347 6.94-4.612 9.293-6.549 9.85-8.108 13.579-12.007 26.89-11.264 5.829-.206 10.626 1.57 14.646 5.852 3.48 3.706 5.72 8.44 5.292 13.647-.907 11.051-3.446 13.48-12.365 18.685-10.556 6.16-16.868 10.897-29.561 8.607 1.096 11.153 9.96 14.653 20.065 13.39 6.257-.783 11.788-5.256 17.004-8.38.267-.164.818.131 1.142.24 1.635 1.573 2.21 5.582 2.194 7.748-.026 3.656-.783 9.086-3.547 11.68-2.452 2.3-5.05 3.363-7.858 5.054-5.224 3.149-10.445 6.962-16.922 6.793-8.14-.211-16.107-7.122-21.596-12.566-7.21-7.15-8.958-17.931-9.097-27.683-.062-4.338 1.942-10.934 3.205-15.25-.27-.434-.97-.689-1.48-.843"/><path fill="#38614b" d="M187.563 156.19c-.459 1.275-1.477 4.1-2.065 5.282-.27-.433-.97-.688-1.48-.842 1.354-1.154 1.554-2.002 2.685-3.37q.434-.533.86-1.07"/><path fill="#205c42" d="M214.923 151.944c9.323.912 17.358 4.154 5.83 11.12-2.176 1.315-3.863 2.138-6.338 2.742-2.575.473-7.443 1.193-9.807-.074a3.06 3.06 0 0 1-1.479-1.813c-1.817-5.958 6.998-10.933 11.794-11.975"/><path fill="#38614b" d="M237.267 191.13c1.513 1.232.655 4.929.13 6.498-1.337 3.991-3.658 8.103-7.501 10.07-.206-.016-.238.001-.315-.056.083-.202.163-.258.347-.407a19.98 19.98 0 0 0 6.911-11.768c.321-1.833.328-2.49.428-4.337"/><path fill="#38614b" d="M224.342 162.613c-1.138 3.29-9.04 6.33-12.708 5.902-.29-.4-.44-.564.192-.7q1.507-.316 2.985-.74c5.087-1.453 5.323-1.736 9.531-4.462"/><path fill="#205c42" d="M233.161 138.721c4.008.95 6.648 4.198 6.953 8.264-1.168-1.048-1.869-3.08-3.072-4.502-1.279-1.51-2.55-2.376-3.88-3.762"/><path fill="#38614b" d="M185.558 183.008c1.012 1.114 1.3 4.096 1.481 5.601-1.617-1.443-1.533-3.584-1.481-5.6"/><path fill="#e7e5dd" d="M451.484 101.047c1.038-.058 2.122-.15 3.154.007 1.425.217 2.928.99 4.118 1.778 10.075 6.662.085 26.455 4.194 30.96 1.887 2.07 7.85.076 10.522.11 1.653.022 3.397.395 4.544 1.675 1.38 1.542 1.487 3.86 1.396 5.817-.124 2.748-.65 5.45-1.262 8.124-.294 1.28-.556 3.191-1.31 4.278-1.768 2.562-5.952 1.854-8.618 2.67-2.41.74-4.647 2.22-6.497 3.919-5.181 4.76-7.125 12.086-7.387 18.914-.141 3.736.406 8.331 3.143 11.112 7.078 7.185 20.878-7.453 25.469-6.914 1.034.121 1.84.537 2.481 1.357 1.697 2.164 3.163 14.548 2.507 17.12-.36 1.4-1.929 2.93-3.188 3.512-16.406 13.258-26.703 17.349-41.456-1.403-6.628-8.425-6.253-12.99-4.344-23.367 1.15-6.248 3.4-13.508 2.475-19.75-.781-4.094-6.906-2.198-9.366-4.006-2.918-2.157-4.272-6.247-3.556-9.774.663-3.26-.49-6.214 1.528-9.296 2.1-3.2 4.91-2.332 7.928-2.89 4.388-.808 2.372-8.413 2.332-11.283.084-10.139-1.57-20.193 11.193-22.67"/><path fill="#38614b" d="M483.138 187.763c3.462 3.908 2.103 11.2-1.3 14.935l-.338-.012-.094-.116c2.26-3.7 3.144-8.33 2.119-12.57-.316-1.295-.319-1.161-.366-1.895z"/><path fill="#205c42" d="M472.99 146.166c2.507 2.581-3.246 5.315-5.384 5.732l-.56.12c-.53-.537-1.337-1.105-.027-1.438 2.768-.705 4.234-2.326 5.972-4.414"/><path fill="#205c42" d="M452.444 104.764c3.672-.02 7.162 2.374 5.997 6.285-1.5-2.092-1.888-3.749-4.525-4.813-.922-.371-1.744-.524-1.472-1.472"/><path fill="#205c42" d="M436.228 139.014c5.947-.337.206 1.185-.581 4.002q-.142.345-.269.697c-1.287 3.486-2.6-1.274.85-4.699"/><path fill="#38614b" d="M445.403 160.833c.603 2.142-.375 5.3-.956 7.435-.885-2.14.156-5.385.956-7.435"/><path fill="#e7e5dd" d="M345.11 132.938c4.377-.003 6.837 3.352 9.24 6.429 3.894 4.94 3.962 9.28 3.384 15.298-.284 2.942.375 9.425-2.915 11.143-6.828 3.566-10.925-6.679-16.088-7.086-8.319-.658-21.512 8.186-22.206 17.21-.387 4.603 2.816 9.55 5.444 12.813a17.6 17.6 0 0 0 6.722 5.14c11.415 4.888 18.637-8.007 24.468-6.785.782.164 1.241.682 1.594 1.365 1.725 3.338.228 9.27-.86 12.654-3.165 7.875-14.468 13.599-22.405 15.293-5.86 1.251-15.276-2.287-19.868-5.685-4.504-3.332-5.409-7.876-7.212-12.755-5.66-10.677-4.563-16.556.278-27.193 2.07-4.548 4.248-11.237 6.484-15.971 1.095-1.862.344-4.028 1.139-5.828 3.547-8.033 13.778-12.283 21.56-14.709 2.687-.837 8.625-1.076 11.24-1.333"/><path fill="#205c42" d="M351.497 195.284c1.106 1.285-.447 5.57-1.031 6.898-1.172 2.669-4.757 5.74-7.491 6.632l-.925.294-.253-.201c.319-.29.503-.247.84-.478 4.363-2.994 7.47-8.457 8.86-13.145"/><path fill="#38614b" d="M304.077 190.212c.323.799.507 1.279.704 2.111.74 3.142 2.223 5.873 3.603 8.745-2.994-2.146-4.696-7.235-4.307-10.856"/><path fill="#205c42" d="M349.766 139.94c3.662.249 4.743 2.606 4.503 6.014-.425-.245-.666-.41-.853-.914-.891-2.406-2.091-3.263-3.65-5.1"/><path fill="#627d6a" d="M317.628 146.195c.784.63-1.75 2.403-2.603 3.351-1.206-.83 2.119-3.017 2.603-3.35"/><path fill="#e7e5dd" d="M289.733 136.94q1.428-.106 2.86-.142c6.463-.117 9.938 7.387 9.784 12.896-.362 12.866-18.511 8.43-25.077 15.916-3.831 4.367-5.702 10.435-5.775 16.27-.036 7.333 7.692 6.132 6.884 14.806-.608 6.533-2.197 11.31-7.34 15.933-.731.657-1.515 1.938-2.327 2.574-2.052 1.908-6.206-.425-8.748-.398-.738.008-1.855-.221-2.586-.374-13.914-12.206 2.73-28.536.844-43.045-1.17-8.991-9.429-15.474-9.965-24.525-.31-5.241 4.902-8.622 9.7-8.108 5.926.494 10.248 2.522 14.34 6.833 5.052-5.438 10.23-7.163 17.406-8.635"/><path fill="#205c42" d="M298.092 147.924c1.819.717 1.342 2.518.564 3.906-1.356 2.42-2.945 2.683-5.384 3.395-3.13-1.443.006-1.36 1.731-2.683 2.065-1.585 2.13-2.347 3.09-4.618"/><path fill="#205c42" d="M255.28 143.064c.576.12 3.194.435 1.523 1.45-2.114 1.285-2.374 2.928-2.865 5.128 0 .184.084.466-.126.56-.895-.21-1.107-2.586-1.002-3.333.264-1.891 1.088-2.633 2.47-3.805"/><path fill="#e7e5dd" d="M504.403 136.741c.922-10.42 5.278-18.39 12.019-26.235 4-4.22 8.615-10.937 14.775-11.576 2.406-.25 8.884 1.703 8.794 4.53-.916.7-3.538.189-5.279.466-3.084.492-5.134 1.398-8.009 2.586l.647.503c1.997-.767 4.403-1.204 6.519-1.657-9.7 6.486-15.01 14.167-17.532 25.575-1.33 6.029-2.465 4.585-8 6.129-7.987 2.229-12.018 7.992-14.75 15.478-3.48-1.05-9.028-1.373-10.959-4.658-2.025-3.45 2.294-8.76 5.303-10.159 1.31-.606 2.247-.565 3.625-.54.232.65.269.612.703 1.196 4.56-2.27 7.15-1.765 12.144-1.638"/><path fill="#38614b" d="M491.556 137.183c.232.65.269.612.703 1.196q-.127.13-.259.26c-2.253 1.443-3.931 3.43-5.784 5.355 2.818-5.757 2.784-3.511 5.34-6.811"/><path fill="#627d6a" d="M527.35 107.015c-.403.122-2.238.824-2.513.553.004-.132-.012-.06.072-.206l.116.128.081-.288c.49-.297 1.06-.484 1.597-.69z"/><path fill="#38614b" d="M519.678 117.163c.594.647-.512 1.885-.981 2.526-2.59 3.554-4.31 7.58-6.453 11.345-.563-.188-.213-.557-.053-1.037 1.643-4.975 4.059-8.91 7.487-12.834"/><path fill="#e7e5dd" d="M542.084 103.44c-.987-1.442-1.74-2.522-2.984-3.767l-.437-.434c-2.244-2.24-4.322-1.658-5.826-3.156-.003-.372-.109-.808.176-1.028 6.35-4.906 16.859-2.327 22.406 2.715 3.022 2.552 5.003 5.272 7.575 8.29 7.16 8.403 12.125 18.148 13.837 29.103.116.746-.037.625-.531 1.144-2.178.113-4.269.63-6.862.787-.329-.664-.966-3.143-1.4-4.249-2.085-5.308-4.013-10.07-6.597-15.14-4.838-9.48-9.7-11.297-19.357-14.264"/><path fill="#b6c0b3" d="M547.978 100.156c-.072-.086-.156-.163-.2-.265.544-.628 4.134 2.081 4.66 2.478.568.292 2.08 1.688 2.293 2.153-.14.348-.472.556-.769.811.02.02 2.538 3.113.46 1.39-1.96-1.627-5.731-2.972-6.575-4.983.075-.606.125-.976.131-1.584"/><path fill="#38614b" d="M547.847 101.74c1.628-.082 4.872 2.564 6.115 3.593.02.02 2.538 3.113.46 1.39-1.96-1.627-5.731-2.972-6.575-4.983"/><path fill="#38614b" d="M547.978 100.156c-.072-.086-.156-.163-.2-.265.544-.628 4.134 2.081 4.66 2.478-1.02.452-3.716-1.544-4.46-2.213"/><path fill="#e7e5dd" d="M495.428 153.019c3.722-7.332 11.188-14.644 19.99-14.87 4.107-.105 8.257.19 12.388.086 1.863-.047 5.775-.53 6.747 1.134.022 1.661-.422 2.53-1.45 3.845-1.212 2.127-9.272 10.544-11.131 9.184-.006-.057-.019-.08.025-.106 2.212-1.421 4.222-3.099 6.162-4.717l-.393-.696c-4.078 3.502-14.016 8.587-19.441 9.608-4.45.837-9.238-.854-12.897-3.468"/><path fill="#e7e5dd" d="M530.816 144.145c.418-.837 1.006-.64 1.78-.948a1 1 0 0 0-.043-.091c.253-.08.203-.035.55.108-1.212 2.127-9.272 10.544-11.131 9.184-.006-.057-.019-.08.025-.106 2.212-1.421 4.222-3.099 6.162-4.717l-.393-.696a100 100 0 0 1 3.05-2.734"/><path fill="#627d6a" d="M530.816 144.145c-.75 1.54-1.447 2.16-2.657 3.43l-.393-.696a100 100 0 0 1 3.05-2.734"/><path fill="#e7e5dd" d="M513.506 157.85c8.528-2.347 15.26-5.764 20.4-13.55.544-.82 2.525-5.047 3.247-5.238 6.825-1.623 15.328-2.225 22.222-.788 2.322.485-.306 4.122-.972 5.23-2.966 3.912-6.431 7.74-11.106 9.602l-.269.109c-.137.196-.197.4-.456.39-.2-.124-.288-.79-.944-1.346-3.028 1.57-5.416 2.749-8.553 4.114-.853.162-3.916 1.289-5.022 1.611-4.228 1.233-6.925 1.264-11.16 1.48-2.73-.275-4.79-.807-7.387-1.613"/><path fill="#e7e5dd" d="M557.597 142.635c.05-.424.003-.525.269-.78.409.01.393.708.43.988q.052.33.107.661c-2.966 3.912-6.431 7.74-11.106 9.602l-.269.109c1.25-2.264 7.956-5.088 10.569-10.58"/><path fill="#38614b" d="M557.597 142.635c-2.613 5.493-9.319 8.316-10.569 10.58-.137.196-.197.4-.456.39-.2-.124-.288-.79-.944-1.346.484-.382 3.628-2.303 4.51-2.897 3.45-2.32 4.665-4.016 7.459-6.727"/><path fill="#e7e5dd" d="M587.744 135.92c6.165-.519 7.537 10.054 5.372 12.356-3.103 3.296-16.744 6.678-20.853 7.303-.216.016-7.732 1.086-6.05-.725 1.009-1.086 4.306-2.207 6.096-3.673 4.238-3.465 4.844-7.558 8.004-11.508 1.012-1.224 5.771-3.063 7.43-3.752"/><path fill="#38614b" d="M591.284 140.095c.963.407 1.27.645 1.02 1.752l-.248 1.047c-1.381.372-.803-1.705-.772-2.799"/><path fill="#e7e5dd" d="M505.247 139.653c.075.017.415.107.465.168-.03.102-.284.328-.39.394-4.306 2.655-6.95 5.672-9.672 9.857l-.197.095-.053-.033c-.097-.196-.016-.492.06-.678 1.693-4.2 5.8-7.971 9.787-9.803"/><path fill="#e7e5dd" d="M503.084 171.253c2.388.174 9.822 3.442 11.797 4.675-4.469-.729-7.91-2.621-11.797-4.675"/><path fill="#b6c0b3" d="M562.913 190.589c.315.144.362.123.518.386-.1.522-2.034.144-2.31.108q.892-.261 1.792-.494"/><path fill="#205c42" d="m0 499.934 640-.022V640H0z"/><path fill="#e7e5dd" d="M291.227 573.472c8.6 4.472 18.158 2.447 26.998.203 6.125-1.553 10.147-1.919 15.556-5.875 2.319-1.697 2.303-1.803 4.6-4.019 1.882-1.506 5.203-8.306 7.307-8.756 2.915-.619 11.39-1.094 14.106-.569l.328.622c-.022 1.531-.419 2.335-.935 3.769-.54 1.112-2.925 5.753-4.287 5.647l-1.222-.444c-4.878 4.656-9.853 7.116-16.478 8.578.875.519.875.481 1.894.681 5.015-1.428 8.64.238 13.8.1 4.65-.125 9.793-1.575 14.237-2.993-1.54 7.09-2.728 14.215-4.19 21.303-5.575-.222-9.428-.866-14.332-3.653 3.632.447 6.513 1.825 9.938 2.403-5.803-3.54-27.91-9.288-34.597-9.25q.155.524.297 1.053c12.29 2.925 26.119 9.706 38.172 12.803-.96 4.15-1.716 8.344-2.269 12.569-13.581-1.132-25.266-10.922-40.747-7.516 5.516 1.734 7.734 1.628 13.3 2.338 3.081.39 10.5 2.74 13.444 4.087-4.394-.406-7.122-1.156-11.385-2.4l-.984.669c7.231 2.544 18.528 4.928 26.213 5.678-2.541 8.034-5.625 12.106-13.107 16.166-7.128 3.868-14.122 3.387-21.93 3.406-3.238.006-6.804.681-10.073.49-20.18-1.18-33.085-5.609-35.662-27.225 2.495 1.3 5.864 3.12 8.438 4.047 5.95 2.147 12.136 3.763 18.114 5.907l.72-.544c-5.588-1.7-10.094-4.322-15.35-6.822-4.013-1.91-8.153-3.575-12.273-5.244-1.191-4.806-2.465-12.784-3.604-18.115 6.6 4.806 27.098 14.075 34.82 14l.202-.307c-1.777-1.4-4.69-2.403-6.781-3.53-9.83-5.307-18.142-8.417-28.717-11.97a547 547 0 0 0-3.552-11.778c7.882 2.344 10.991 5.569 19.99 4.49"/><path fill="#e7e5dd" d="M357.85 558.853c.375-1.075.56-.681 1.337-.006-.54 1.112-2.925 5.753-4.287 5.647.722-1.919 2.078-2.65 2.95-5.64"/><path fill="#38614b" d="M357.85 558.853c-.872 2.99-2.228 3.722-2.95 5.64l-1.222-.443c1.7-1.834 2.694-3.219 4.172-5.197"/><path fill="#38614b" d="M332.71 573.566c1.768-.482 2.653-.666 4.49-.938.875.519.875.481 1.894.681-2.288.263-4.094.263-6.385.257"/><path fill="#8c9d8f" d="M306.492 612.747c.65.11 1.824.219 2.152.769l.004-.232.114.21.053-.006.01.04c-.185.147-.453.153-.682.128a28 28 0 0 1-2.372-.365z"/><path fill="#38614b" d="M333.778 604.822c-2.344-1.385-.3-.881.984-.669z"/><path fill="#38614b" d="M324.247 582.272c-.966-.397-2.26-.825-.297-1.053q.155.524.297 1.053"/><path fill="#38614b" d="M327.984 621.625c1.454.24 7.35 1.144 8.079 2.1-2.044.413-6.597-.24-7.82-1.788z"/><path fill="#627d6a" d="M299.027 616.575c2.526.456 5.421 1.822 7.62 3.094-2.285-.406-5.822-1.6-7.62-3.094"/><path fill="#e7e5dd" d="M286.754 553.581c.516-13.612 10.732-25.856 20.548-34.494.805-.706 3.315-2.068 4.296-2.368 2.558-.775 9.755.934 10.42 3.76-1.443 1.833-2.515.558-5.44.912-.184.603-.4.909-.662 1.478-4.8 3.178-8.12 5.825-11.41 10.681a39.9 39.9 0 0 0-4.638 9.475c-.545 1.6-2.255 8.719-3.104 9.29-2.067 1.398-5.384.57-8.52 2.288-5.19 2.79-8.252 6.422-10.609 11.822l-1.015 2.288c-4.05-1.113-14.496-2.447-10.566-9.588 1.182-2.15 5.41-6.7 8.164-4.962.395.318.577.5 1.02.73 4.079-2.002 6.944-1.368 11.516-1.312"/><path fill="#38614b" d="M306.873 524.913c3.461-1.863 5.708-2.96 9.705-3.522-.184.603-.4.909-.662 1.478-2.9-.047-6.145 1.262-9.043 2.043"/><path fill="#38614b" d="M269.201 560.184q.397-.68.787-1.368c1.516-2.732 2.24-2.697 4.23-4.654.395.32.577.5 1.02.732-2.796 2.344-3.308 2.793-6.037 5.29"/><path fill="#38614b" d="M302.247 534c.852.513-.593 2.031-1.1 2.634-2.869 3.41-4.488 7.61-6.724 11.244-.173-.031-.19-.012-.3-.106-.077-.256.104-.516.186-.76 1.699-5.046 4.209-9.196 7.938-13.012"/><path fill="#e7e5dd" d="M321.11 510.734c10.877-.559 15.434 4.132 22.246 11.779 9.032 10.14 11.944 17.403 15.332 30.362-2.622.369-4.157.519-6.797.587-1.413-.928-6.766-14.634-8.113-17.187-5.566-10.525-9.172-11.803-20.084-15.187-.678-1.325-1.672-2.804-2.697-3.882-1.678-1.769-5.285-1.372-6.344-3.781l.422-.71c2.128-1.356 3.634-1.621 6.034-1.98"/><path fill="#e7e5dd" d="M329.41 517.956c-.204-.147-.298-.168-.357-.375.163-.647 2.185.419 2.369.528 1.956 1.135 3.66 2.541 5.075 4.303.831.382.603.894.215 1.654-.846.24-7.074-3.482-7.118-4.625-.053-.479-.097-1.022-.185-1.485"/><path fill="#38614b" d="M336.713 524.066c-.847.24-7.076-3.482-7.12-4.625 2.91.518 5.098 2.693 7.12 4.625"/><path fill="#627d6a" d="M329.41 517.956c-.204-.147-.298-.168-.357-.375.163-.647 2.185.419 2.369.528 1.956 1.135 3.66 2.541 5.075 4.303-1.469-.78-1.84-1.346-3.185-2.284-1.09-.762-2.687-1.475-3.903-2.172"/><path fill="#e7e5dd" d="M290.327 556.988c.728-.341 4.346-2.104 5.563-2.213 6.402-.587 14.844-.744 21.263-.05.316.034.61.69.825 1.034.622 4.75-9.538 12.275-13.908 13.307-.473-.463-.663-.694-1.077-1.22-4.515 2.082-9.67 4.95-14.745 4.682-2.265-.119-9.344-1.669-9.069-4.437 3.336-5.303 5.85-7.763 11.148-11.104"/><path fill="#38614b" d="M315.225 559.463c-2.084 2.943-4.151 4.965-7.205 7-1.397.93-2.695 1.512-3.95 2.603-.473-.463-.663-.694-1.077-1.22 5.823-2.893 7.445-4.187 12.232-8.384"/><path fill="#e7e5dd" d="M320.484 555.144c3.632-.735 19.947-2.557 21.891-.097.253 1.872-.887 3.228-1.888 4.831-2.759 3.45-6.762 7.472-10.965 8.972-.025.003-.338.084-.435.003-.034-.028-.034-.062-.034-.106-.006-.153.022-.325-.025-.472-.065-.219-.472-.331-.59-.39a73 73 0 0 1-3.744 1.928c-9.478 4.615-18.387 7.384-28.595 3.875q.95-.231 1.897-.476c11.182-2.93 16.929-8.512 22.488-18.068"/><path fill="#38614b" d="M339.775 558.89c.46.357.434.416.712.988-2.759 3.45-6.762 7.472-10.965 8.972-.025.003-.338.084-.435.003-.034-.028-.034-.062-.034-.106-.006-.153.022-.325-.025-.472-.065-.219-.472-.331-.59-.39.768-.682 4.906-3.263 6.434-4.457 1.81-1.41 3.784-3.7 4.903-4.537"/><path fill="#e7e5dd" d="M339.775 558.89c.46.357.434.416.712.988-2.759 3.45-6.762 7.472-10.965 8.972.737-1.397 7.806-4.828 10.253-9.96"/><path fill="#e7e5dd" d="M370.016 552.528c5.2.15 6.55 9.31 4.706 11.403-2.953 3.353-16.372 7.022-20.734 7.381-1.891.238-10.35.863-3.894-1.812 10.653-4.413 6.681-12.316 16.584-15.89 1.094-.41 2.21-.77 3.338-1.082"/><path fill="#38614b" d="M372.816 556.134c1.303.978 1.018 1.607.578 3.082-1.166-.86-.844-1.763-.578-3.082"/><path fill="#e7e5dd" d="M288.339 556.25c.248.04.407.084.526.14-.01.173-1.588 1.063-1.867 1.238-3.297 2.031-5.643 4.944-7.9 8.034l-.155.097c-.239-.193-.055-.68.07-.922 2.077-3.98 5.23-6.943 9.326-8.587"/><path fill="#e7e5dd" d="M284.968 586.188c4.351 1.312 6.434 2.337 10.567 3.971l-.14.675c-4.555-1.956-5.61-1.753-10.427-4.646"/><path fill="#8c9d8f" d="M295.535 590.16c.398.118 1.338.396 1.428.874-.22.282-1.3-.134-1.569-.2z"/><path fill="#205c42" d="M130.44 360c3.77-9.556 9.764-22.163 19.6-26.587 1.91-.86 4.885-1.791 6.878-.876 5.425 2.488 10.353 8.926 12.632 14.282 2.55 5.993 2.32 11.037 2.824 17.356.194 2.438.672 4.581.445 6.94l-.182.31-.794-1.128c-.402.644 1.232 12.412 1.44 13.894 1.37 9.759-.138 19.447.274 29.184.195 4.619 1.014 9.581 1.448 14.216.426 3.593 3.686 16.39 2.87 19.028l-.87-.588c-.566 1.563-.128 2.697-1.25 4.288-1.205 1.71-5.36 3.168-6.473 4.372-4.263 4.606-11.325 9.362-15.335 1.556-.774-1.506-2.36-3.447-3.497-4.85.333-1.853-.74-4.525-1.056-6.597a46.4 46.4 0 0 1-.54-6.881c.014-12.825 2.615-26.497 2.156-39.388-.123-3.46-1.453-10.96-5.747-11.097-1.579-.087-3.335 1.428-4.279 2.538-7.631 9.175-11.248 20.344-13.102 31.916-1.432 8.946-1.485 15.943-5.753 24.434-1.638 3.26-3.505 4.062-5.297 6.712-2.404 3.553-4.148 7.038-9.048 7.482-1.956.178-5.181-.316-6.667-1.694-2.775-2.575-3.807-9.916-3.667-13.55.253-6.578.375-12.903.398-19.506-.085-1.325.287-2.188-.694-2.997-1.959-1.385-1.049-11.757-1.782-14.169-8.995-29.584-17.849.269-17.262 13.488.387 8.728.85 19.68-3.083 27.321.826-1.603-8.444 9.803-7.823 9.257a5.27 5.27 0 0 1-2.39 1.218c-2.701.61-8.3-.725-10.163-2.665-1.747-1.819-3.98-3.072-5.71-4.663-1.184-2.947 1.755-12.022 2.487-15.493a719 719 0 0 0 4.647-25.51l1.33-.575c.4-.231 1.335-4.587 1.56-5.422 3.72-11.125 4.855-22.39 7.394-33.793.257-1.154.775-3.197.613-4.244-.567.562-.681.897-1.297.962-.055-1.91.49-3.997.996-5.831 1.493-5.422 10.328-21.944 15.176-24.462 2.27-1.179 4.806-.754 7.117.068 12.063 4.3 15.253 27.266 17.574 38.116.73 3.41 1.313 7.197 2.77 10.369l.891.225c1.799 2.156 1.997 6.334 5.039 7.38 4.799-.037 7.237-15.071 9.149-19.012 1.26-2.593 7.299-13.34 7.18-15.184z"/><path fill="#8c9d8f" d="M97.154 422.769c.234-.763.227-1.882.627-2.378.732-.125.146 4.818.067 5.375-.085-1.325.287-2.188-.694-2.997"/><path fill="#e7e5dd" d="M90.102 342.419c4.324 1.24 3.816 4.303 5.689 7.9 2.873 5.522 5.27 11.328 5.852 17.606-1.753-1.663-5.829-14.912-7.484-18.266-1.254-2.543-2.73-4.846-4.057-7.24"/><path fill="#e7e5dd" d="M58.456 428.64c.437 1.257-.66 4.085-.934 5.582-1.023 5.572-1.76 11.222-.906 16.875.128.847.226 1.087-.237 1.8-2.579-6.125-1.654-18.675 2.077-24.256"/><path fill="#e7e5dd" d="M160.22 341.3c5.802 1.769 8.292 9.94 8.514 15.362-1.098-.8-3.04-7.14-4.06-9.159-1.363-2.7-3.027-3.994-4.455-6.203"/><path fill="#b6c0b3" d="M155.453 406.16c.315 1.534.335 12.974-.287 14.3-.203-2.229-.896-12.447.037-13.897z"/><path fill="#e7e5dd" d="M105.498 447.169c.496 3.053-.011 6.606 1.528 9.519.42.793.469.68.769 1.584-3.584-.803-3.033-8.49-2.297-11.103"/><path fill="#627d6a" d="M168.266 438.594c1.24 1.203 1.024 2.54 1.129 4.325-.867-.781-1.017-3.169-1.129-4.325"/><path fill="#205c42" d="M562.316 381.11c2.678-.42 13.784-1.394 15.89-.438.49 1.481-.897 3.956-1.565 5.412l-.244.45c-.41.782-2.45 4.085-3.275 4.094a16 16 0 0 1-.031-.384c-.453-.14-.616-.238-1.032-.225-4.884 5.16-8.843 6.787-15.743 8.828-1.622.478-4.316 1.034-5.807 1.631 6.763-.39 10.85-2.4 18.047-.984 4.866.953 12.8-.916 17.338-2.853-1.51 7.262-2.716 14.812-4.088 22.143-5.534-.059-7.265-.556-12.387-2.678l1.243-.637c1.6.731 2.266 1.106 4.013 1.456l.422-.166c-.747-2.83-25.994-7.972-29.994-8.693-1.628-.294-4.369-.266-6.031-.103 14.278 4.35 28.203 9.943 41.922 14.087-.406 2.05-1.825 11.844-2.747 12.531-10.64.147-25.331-9.278-36.984-7.869-.96.116-2.035.01-2.797.641 1.718 2.06 8.125 1.6 10.818 2.013 5.172.797 9.87 2.5 14.77 4.215-4.026-.253-6.135-.822-10.02-1.99-.828.259-.812.275-1.525.746 5.307 2.297 20.088 4.866 26.266 5.679-2.24 8.35-5.766 12.765-13.234 17.278-4.825 2.915-10.35 3.91-15.86 3.615-16.681-.122-40.469 3.21-49.687-14.734-2.21-4.303-3.138-8.122-3.544-13.097 9.262 5.153 14.866 5.969 24.597 9.39l1.112-.587c-8.053-2.981-17.08-8.24-26.047-11.597-1.19-6.803-2.337-11.262-4.178-17.956-.562-.853-.447-.925-.615-1.987-.35-2.178-2.763-9.785-3.503-12.763 9.662 2.566 9.54 5.303 20.997 4.363 4.062 2.05 7.409 2.44 11.918 2.6l.231-.92c7.176-.515 7.754.145 15.332-2.618l.25.828a34.5 34.5 0 0 0 6.056-1.203c9.04-2.675 15.366-9.425 19.716-17.519"/><path fill="#e7e5dd" d="M491.319 408.34c4.887 1.588 9.775 2.785 14.615 4.735 5.047 2.031 9.788 4.472 14.685 6.825 2.478 1.194 5.462 2.097 7.64 3.566l.191.45c-2.937.625-16.316-3.672-19.684-5.016-1.779-.71-5.478-2.672-7.479-3.756-2.509-1.363-6.103-3.45-8.662-4.966l-.69.15c-.563-.853-.447-.925-.616-1.987"/><path fill="#38614b" d="M502.756 413.728c2.516.544 9.807 3.281 11.713 4.928-4.763-1.672-7.16-2.147-11.713-4.928"/><path fill="#e7e5dd" d="m536.294 399.003.25.828c-5.078 1.74-10.447 2.744-15.813 2.71l.231-.92c7.176-.515 7.754.145 15.332-2.618"/><path fill="#38614b" d="M575.484 385.616c.022-.294-.053-.407.16-.622.253.018.79.856.997 1.09l-.244.45c-.41.782-2.45 4.085-3.275 4.094a16 16 0 0 1-.031-.384c1.187-1.797 1.818-2.588 2.393-4.628"/><path fill="#e7e5dd" d="M572.06 390.019c1.168-1.413 2.29-3.153 3.424-4.403-.575 2.04-1.206 2.83-2.393 4.628-.453-.14-.616-.238-1.032-.225"/><path fill="#b6c0b3" d="m522.16 439.881 3.471 1.103c.682.213 1.332.535 1.994.8-2.328-.353-4.294-.825-6.578-1.315z"/><path fill="#e7e5dd" d="m549.637 430.547 2.482.584q.96.22 1.915.46c-.828.259-.812.275-1.525.746-1.022-.565-1.9-1.14-2.872-1.79"/><path fill="#e7e5dd" d="M546.303 450.306c1.835.106 5.631 1.063 7.75 1.238.281.022.45.631.553.894-3.265.437-5.693.093-8.303-2.132"/><path fill="#e7e5dd" d="M517.066 444.728c1.993.284 6.018 1.919 7.487 3.334-2.119-.459-5.844-1.862-7.487-3.334"/><path fill="#205c42" d="M396.316 395.281a39.6 39.6 0 0 0-13.144 2.735c-1.566.63-7.638 3.471-8.51 2.446-2.334-2.743-2.012-15.193.26-18.08 1.012-1.282 4.76-2.416 6.322-3.085 5.687-3.185 11.01-5.147 17.625-4.981 8.5.212 11.16 4.862 16.406 10.247 5.569 5.715 3.797 11.421 4.61 18.68.262 2.335.903 5.073 1.43 7.398a281 281 0 0 0 3.823 15.046c1.84 6.332 5.19 14.41 5.675 20.776.274 3.6-14.713 9.653-18.075 10.09-3.082.4-3.854-4.362-4.332-6.378-.21-.94-.347-1.837-.556-2.769-1.944 5.4-7.231 7.322-11.828 9.994-5.96 3.113-12.966 1.466-18.1-2.284-3.981-2.907-10.538-5.76-12.334-10.638-5.672-15.394 7.121-28.253 18.993-35.825 2.078-1.325 9.39-.369 11.76.331 3.009.838 8.384 4.52 10.584 1.485.331-1.619-.016-2.497-.488-4.031-1.678-5.463-5.54-8.247-10.121-11.157"/><path fill="#b6c0b3" d="M407.85 447.406c.053-.64.116-.862.331-1.484l.085-.05.022-.05c.021 0 .037-.006.046.019.282.796.094 3.562.072 4.334-.21-.94-.347-1.837-.556-2.769"/><path fill="#e7e5dd" d="M398.85 439.781c-3.528-.625-7.466.382-11.347-1.131-2.99-1.166-6.497-4.384-5.175-7.784 1.938-4.975 6.275-9.813 11.89-9.897 4.179-.181 8.385 2.119.873 1.372-.81.237-.86.256-1.632.653 4.629 1.062 7.203-.235 10.794 2.553 3.334 2.584 5.29 2.906 3.197 7.612-1.744 4.816-3.01 5.75-7.787 8.02-.3-.754-.31-.745-.813-1.398"/><path fill="#38614b" d="M393.46 422.994c-.298-.078-1.266-.235-1.385-.613.338-.443 2.481-.14 3.016-.04-.81.237-.86.256-1.632.653"/><path fill="#e7e5dd" d="M409.984 381.716c3.482 1.075 5.132 5.237 6.179 8.43-.666-.483-4.854-6.762-6.179-8.43"/><path fill="#b6c0b3" d="M367.803 427.987c.69 1.675-.837 6.913-.231 9.197.231.87.484 3.297.45 4.225-1.422-2.328-1.735-10.818-.219-13.422"/><path fill="#e7e5dd" d="m381.338 383.106.315.16c-.025.215-1.312 1.078-1.556 1.3-1.4 1.272-2.034 2.565-2.797 4.243q-.098.037-.197.07c-.606-.173.34-2.57.478-2.92.666-1.675 2.19-2.218 3.756-2.853"/><path fill="#e7e5dd" d="M398.85 439.781c.503.653.512.644.813 1.397q-.093.038-.191.072a41.4 41.4 0 0 1-6.728 2.047c2.075-1.003 4.565-1.885 6.106-3.516"/><path fill="#e7e5dd" d="M416.294 448.522c-.047.175-.069.34-.172.478-.803.194-1.819-3.197-1.29-4.116l.052-.003c.285.25.716 1.25.891 1.607q.25 1.019.519 2.034"/><path fill="#38614b" d="M416.656 446.69c.675.194 1.503.607.772 1.313l-1.134.519c-.178-.678-.353-1.353-.519-2.034z"/><path fill="#e7e5dd" d="M416.656 446.69c.675.194 1.503.607.772 1.313-.472-.603-.556-.61-.772-1.312"/><path fill="#205c42" d="M217.04 376.037c.814-.034 1.795.263 2.495.21 8.529-.656 15.172 1.037 20.26 8.469 3.212 4.69 3.898 9.168 2.843 14.893-.845 4.582-2.008 8.632-6.274 11.391-9.596 6.09-21.606 14.425-33.598 12.31-1.026-.182-.428-.3-1.483.002-1.4 2.476.683 5.426 2.273 7.297 7.696 9.07 21.058 6.597 29.715.425 1.411-1.006 3.569-3.44 5.17-3.296 4.553 3.55 2.78 13.512.666 18.187-1.33 2.094-2.715 2.784-4.597 3.972-15.148 9.565-23.173 14.147-38.39 1.166-8.896-7.588-10.838-9.963-13.284-22.06-2.422-11.978.552-19.087 4.599-30.144-1.033 1.404-2.026 2.757-3.118 4.116.851-3.447 1.572-5.11 3.066-8.34l-.473-.532c.71-1.503 5.677-4.097 7.265-5.319 7.84-6.034 12.61-11.428 22.866-12.747"/><path fill="#e7e5dd" d="M213.976 394.403c3.24-.162 11.219.819 12.478 4.403.285.807.21 1.697-.208 2.444-1.91 3.475-7.726 5.525-11.219 6.684-4.407.882-14.835 2.794-11.407-5.846 1.445-3.644 6.782-6.35 10.356-7.685"/><path fill="#e7e5dd" d="m222.165 407.644-.475.337c-2.373 1.713-5.597 3.447-8.72 3.24-.287-.018-2.836-.33-1.818-1.052.244-.172 3.042-.794 3.505-.913 2.373-.603 4.421-1.565 6.658-2.487l.556-.235z"/><path fill="#e7e5dd" d="M237.483 433.628c.075.066.5.419.525.531 1.209 5.35-3.337 13.4-7.682 15.61l-.929.465-.122-.059-.007-.047c.221-.334 1.114-1.094 1.46-1.372 3.95-3.181 6.108-8.147 6.516-13.131.037-.456.013-.916.11-1.39z"/><path fill="#e7e5dd" d="M233.794 381.49c4.174.588 6.173 4.057 6.605 7.976-.291-.341-.526-.594-.72-1-1.572-3.288-3.262-4.704-5.885-6.975"/><path fill="#e7e5dd" d="M185.414 425.253c.729 1.01 1.5 5.247 1.75 6.64-1.744-2.252-1.95-3.865-1.75-6.64"/><path fill="#e7e5dd" d="M221.87 406.534c1.253-.634 2.193-1.165 3.508-1.78q-1.59 1.46-3.213 2.89z"/><path fill="#205c42" d="M451.328 345.678c13.819-.934 12.79 12.572 11.419 21.738-.372 2.48-.822 8.478.722 10.287 4.65 2.747 16.431-5.384 15.947 7.022-.763 19.462-5.347 10.678-17.204 18.575-6.853 4.563-10.656 22.878-5.05 29.369 6.191 7.712 22.463-7.013 25.082-6.869 1.931 2.116 3.26 1.187 4.197 2.581.543 4.856 4.097 17.188-1.616 19.325-5.819 4.769-13.766 10.828-21.416 11.616-6.028.625-9.865-2.672-14.409-6.144-2.269-1.734-4.078-4.303-5.863-6.315-8.818-9.954-4.578-19.207-2.556-30.788.613-3.506 1.397-7.29 1.05-11.038-.493-5.343-7.397-2.271-10.325-5.206-4.775-4.784-2.212-10.187-2.572-16.24l-.04-.629c4.969-7.262 12.393-.88 12.193-9.637-.256-11.262-3.993-24.531 10.441-27.647"/><path fill="#e7e5dd" d="M451.875 349.125c4.478-.694 7.563 2.231 7.144 6.725-2.181-1.506-2.444-4.522-5.716-5.334-.987-.244-1.26-.42-1.428-1.391"/><path fill="#e7e5dd" d="M473.081 390.222c1.016.7.69 1.519.028 2.425-1.734 2.375-3.746 2.54-6.45 3.019-.568-.61-1.14-1.413.207-1.61 2.715-.397 4.375-1.962 6.215-3.834"/><path fill="#e7e5dd" d="M482.838 430.269c1.559 1.147 2.062 3.834 2.184 5.668.244 3.707-.456 5.807-2.894 8.544-.044.01-.378.147-.478.06-.131-.116.175-.563.266-.744.675-1.338 1.234-2.628 1.63-4.075.96-3.503-.112-6.088-.709-9.453"/><path fill="#e7e5dd" d="M437.506 382.481c.525.166 1.163.257 1.622.597 0-.072.166.21.131.222-2.772 1.216-3.203 2.534-4.197 5.006-.759 1.928-2.7-3.334 2.444-5.825"/><path fill="#e7e5dd" d="M445.46 403.981c.246 2.266-.241 5.372-.96 7.528-.734-2.628.053-4.94.96-7.528"/><path fill="#205c42" d="M344.228 375.119a7.3 7.3 0 0 1 2.016-.016c2.672.34 5.131 2.831 6.762 4.838 4.75 5.834 5.066 9.503 4.588 16.793-.138 2.135-.066 4.282-.313 6.407-.193 1.684-.787 4.25-2.334 5.246-5.638 3.635-11.425-6.79-16.481-7.39-5.21-.616-11.694 3.062-15.675 6.184-3.325 2.603-5.954 6.71-6.357 10.975-.443 4.747 2.775 9.394 5.675 12.881 1.788 2.154 4.157 3.947 6.747 5 11.319 4.61 18.019-8.246 23.84-7.162.85.156 1.476.666 1.91 1.39 1.957 3.276.197 9.426-.797 12.823-3.715 8.071-14.362 13.328-22.69 15.234-5.594 1.284-15.228-2.25-19.639-5.497-3.864-2.844-5.079-6.628-6.543-10.925-6.07-11.322-6.074-17.987-.294-29.503 1.95-3.888 4.056-10.41 6.058-14.566 1.668-3.465.634-7.243 3.693-10.253 4.118-5.362 12.956-9.075 19.225-11.075 1.375-.44 8.853-1.187 10.61-1.384"/><path fill="#e7e5dd" d="M351.45 437.128c.072.075.303.3.319.41.906 6.312-4.5 11.346-9.55 13.39-.39-.372-.238-.497.25-.79 4.987-3.016 7.025-7.922 8.981-13.01"/><path fill="#e7e5dd" d="M303.81 432.106c.236.39.44.71.524 1.172.677 3.728 2.363 6.34 3.906 9.631-3.116-2.106-4.708-7.15-4.43-10.803"/><path fill="#e7e5dd" d="M349.581 382.125c3.74.119 4.84 3.04 4.4 6.36-.372-.31-.6-.548-.747-1.041-.693-2.31-2.128-3.55-3.653-5.319"/><path fill="#b6c0b3" d="M318.225 388.1q.146.083.297.166c-.11.19-2.716 2.465-3.238 3.03-.068.063-.137.138-.215.17q-.052-.03-.097-.06c-.284-1.215 2.428-2.8 3.253-3.306"/><path fill="#205c42" d="M290.923 378.525c1.981-.097 4.392-.084 6.046 1.103 2.847 2.047 4.704 6.488 5.165 9.897 1.67 12.363-11.953 11.71-19.744 14.744-2.514.978-5.132 3.065-6.692 5.244-2.645 3.696-5.761 13.934-3.391 18.053 1.597 2.772 5.423 4.047 5.9 8.412.505 4.635-1.403 11.747-4.33 15.263-1.636 1.965-5.344 6.834-7.956 6.8-1.47-.02-3.636-1.3-4.986-1.382-2.859-.178-2.837.575-5.125-1.622-11.41-12.874 3.274-25.921 2.308-40.662-.702-10.725-21.893-30.275-1.475-33.994 5.046-.922 11.986 3.45 15.575 6.769 5.32-5.247 11.482-7.475 18.705-8.625"/><path fill="#e7e5dd" d="M298.294 389.834q.21.126.42.247c.41.26.692.682.775 1.16.712 3.9-3.764 5.437-6.665 5.98-2.274-1.768.201-1.262 2.013-2.555 2.068-1.475 2.377-2.632 3.457-4.832"/><path fill="#e7e5dd" d="M254.084 385.313c.563-.06 2.724-.397 2.889.462-.571 1.516-2.536.313-3.546 5.7.373 2.766-4.074-1.972.285-5.822z"/><path fill="#205c42" d="M504.51 378.688c2.034-13.51 8.05-21.785 17.393-31.66 2.894-2.894 5.872-5.922 10.266-5.856 2.212.034 7.8 1.734 7.634 4.384-5 .613-6.972.531-11.672 2.447l.672.644 2.903-.566.466 1.022c-8.216 6.019-12.063 12.272-14.806 22.106-.444 1.591-.863 5.42-1.928 6.247-1.71 1.335-5.588 1.253-8.082 1.969-6.547 1.881-11.687 9.647-13.425 15.878-3.65-.984-9.487-.865-11.319-4.472-2.309-4.56 3.835-10.734 8.141-11.39l.578.28c-.056.92-.41 1.157-1.212 1.85q-.534.461-1.082.907l.97.266c5.634-4.519 7.765-3.553 14.502-4.057"/><path fill="#e7e5dd" d="m489.038 382.478.968.266c-.781.815-1.565 1.634-2.26 2.528-.08.106-.508.856-.774.731-.49-.684 1.672-3.081 2.066-3.525"/><path fill="#e7e5dd" d="m528.131 348.003.672.644c-1.519.472-2.71.844-4.262 1.212 1.312-.772 2.159-1.287 3.59-1.856"/><path fill="#e7e5dd" d="M520.294 359.331c.065.066.34.316.3.375-2.144 3.181-6.135 10.213-7.775 12.95-.163-.087-.431-.134-.338-.444 1.485-4.762 4.14-9.474 7.813-12.88"/><path fill="#205c42" d="M538.794 335.388c12.11-1.138 16.403 3.48 23.775 12.178 8.647 10.2 12.194 18.115 14.85 31.128q-2.98.37-5.975.656c-1.069.056-1.066.081-2.1-.16-.903-1.218-.747-2.768-1.375-4.206-1.85-4.24-3.428-8.528-5.482-12.662-5.54-11.147-9.112-12.716-20.193-16.331-.847-1.441-2.478-3.838-3.85-4.71-1.597-1.019-4.506-1.028-5.647-2.812l.156-.688c1.603-1.447 3.784-1.96 5.84-2.394"/><path fill="#e7e5dd" d="M548.497 343.206c-.219-.122-1.016-.51-1.169-.818-.09-.182.503-.372.616-.3 2.603.559 5.581 3.287 7.119 5.312l.209.272c-.063.365-.081.637-.113 1.003.07.153.482.81.285.947-.931.015-6.672-4.216-7.528-5.403.071-.553.184-.553.58-1.013"/><path fill="#e7e5dd" d="M548.497 343.206c-.219-.122-1.016-.51-1.169-.818-.09-.182.503-.372.616-.3 2.603.559 5.581 3.287 7.119 5.312l.209.272c-2.544-1.431-3.828-3.228-6.775-4.466"/><path fill="#38614b" d="M548.497 343.206c2.947 1.238 4.231 3.035 6.775 4.466-.063.365-.081.637-.113 1.003-1.634-1.36-4.553-4.034-6.684-4.363l-.56-.093c.072-.553.185-.553.582-1.013"/><path fill="#205c42" d="M537.053 380.931c3.65-.81 21.138-2.762 22.997.128-.069 1.491-.75 2.51-1.434 3.866-2.247 3.675-7.313 9.022-11.479 10.15-.368-.334-.374-.469-.621-.978-3.557 1.956-6.363 3.525-10.222 4.906-7.578 2.763-8.156 2.103-15.332 2.619-2.721-.347-4.893-.91-7.515-1.672 12.028-2.675 17.75-8.772 23.606-19.019"/><path fill="#e7e5dd" d="m557.881 384.21.735.715c-2.247 3.675-7.313 9.022-11.479 10.15-.368-.334-.374-.469-.621-.978 1.765-1.375 3.653-2.322 5.69-4.022 2.522-2.11 3.622-3.86 5.675-5.866"/><path fill="#38614b" d="m557.881 384.21.735.715c-2.247 3.675-7.313 9.022-11.479 10.15 2.72-2.738 8.976-5.91 10.744-10.866"/><path fill="#205c42" d="M495.84 395.9c3.304-7.113 9.923-15.222 18.42-15.437 3-.079 18.653-.572 20.168.706.34 1.631-1.51 4.497-2.462 5.815-.116-.247-.516-1.537-.679-1.575l-.028.01-.075-.022c-.456.381-.4.353-.418.934-5.572 4.938-9.632 7.785-16.532 10.74-6.978 2.995-11.912 2.685-18.393-1.171"/><path fill="#205c42" d="M593.6 383.425c1.753 6.113-.216 8.212-5.71 10.016-4.174 1.372-7.937 3.303-12.424 4.037l-1.27.213c-1.259.212-6.505.884-7.784.118-.134-.08-.293-.43-.234-.493 1.753-1.841 4.394-2.297 6.79-4.491 4.316-3.947 4.138-7.31 7.435-10.844 1.372-1.472 6.435-3.834 8.506-3.64 1.529.143 2.644 1.437 3.582 2.54.393.888.768 1.619 1.109 2.544"/><path fill="#e7e5dd" d="M591.64 382.088c.9.978.598 1.556.532 2.946-1.663.329-.91-2.05-.531-2.946"/><path fill="#38614b" d="M56.075 411.553c.258-1.344 2.626-13.697 3.122-13.875 1.067.172-.554 5.903-.757 6.663l-.142.578.666.637c-.224.835-1.16 5.19-1.56 5.422z"/><path fill="#b6c0b3" d="m58.298 404.919.666.637c-.224.835-1.16 5.19-1.56 5.422-.16-1.419.361-3.481.673-4.887z"/><path fill="#38614b" d="M530.766 386.331c.018-.581-.038-.553.418-.934l.075.022.028-.01c.163.038.563 1.328.679 1.575-2.522 2.891-5.104 5.335-8.4 7.338-.197.119-1.713 1.006-1.935.519.153-.366 7.428-4.794 8.872-7.929z"/><path fill="#38614b" d="M505.213 382.203c.234.135.174.081.243.163-.11.29-2.175 1.73-2.615 2.075-2.275 1.784-4.216 4.015-5.954 6.315-.121-.043-.234-.056-.29-.168 1.116-3.329 5.503-6.87 8.616-8.385"/><path fill="#38614b" d="M569.419 416.106c-.416-.16-1.563-.456-1.707-.915.344-.528 1.938.003 2.366.125l.584.153z"/><path fill="#38614b" d="M531.706 348.081c.413-.097 2.116-.678 2.4-.365-.103.387-1.353 1.05-1.706 1.256l-.228.131z"/><path fill="#38614b" d="m130.44 360 1.127.15c-.361.369-2.399 2.522-1.282.184z"/></svg>